<svg id="Warstwa_1" data-name="Warstwa 1" xmlns="http://www.w3.org/2000/svg" viewBox="0 0 1118.18 1118.18"><defs><style>.cls-1{fill:#fff;}.cls-2{fill:#b59b7c;}.cls-3{fill:#8c6638;}.cls-4{fill:#897156;}</style></defs><title>IMG_02aa11</title><path class="cls-1" d="M1584,1583.82H465.82V465.64H1584ZM943.28,1414.9a36,36,0,0,0,.69,3.73c.7,2.43,1.22,5.19,4.21,5.84,3.42.74,4.73-2.06,6.23-4.28q27.17-40.18,54.29-80.38,22.72-33.64,45.42-67.29c12.06-17.94,24-36,36-53.93,1.92-.32,3.87-1,5.76-.88,7.05.48,14.08,1.28,21.12,1.88,9.94.85,19.9,1.54,29.83,2.47,12.28,1.14,24.54,2.57,36.82,3.68,14.46,1.3,28.93,2.32,43.39,3.61,14.81,1.31,29.6,2.83,44.4,4.2,12.28,1.13,24.56,2.13,36.83,3.25,6.21.56,7.12,0,8.65-6.14q9.43-38.06,18.79-76.13,12.69-51.27,25.4-102.54,19.13-77.46,38.2-154.93,9.71-39.4,19.39-78.8,19.17-77.73,38.37-155.44c2.48-10.05,5.12-20.05,7.65-30.08.64-2.55.89-5.18-1.48-7-2.61-2-5.11-.93-7.52.63-1.83,1.19-3.68,2.36-5.58,3.41q-37,20.43-74,40.82-50.82,28-101.63,56.12-40.59,22.37-81.22,44.62-42,23.11-84,46.31-33.4,18.42-66.85,36.79-36,19.86-72.05,39.78Q937.22,912.48,904,930.69q-45.35,25-90.65,50.07c-23.87,13.15-47.81,26.18-71.68,39.32q-40.11,22.09-80.15,44.29-36,19.85-72.17,39.52a4.29,4.29,0,0,0-2.43,4.93c.37,2.23,2,2.77,4,2.79,4,0,8,0,12,.22,12.86.81,25.7,1.88,38.55,2.61,10.88.63,21.78.82,32.65,1.4,17,.9,34.06,2,51.1,3,14.13.79,28.26,1.49,42.4,2.22,15,.77,30.08,1.51,45.12,2.3q21.74,1.14,43.47,2.34c.78,2.61,1.54,5.22,2.33,7.83l43,143.37q15.7,52.4,31.44,104.8C936.35,1392.76,939.85,1403.82,943.28,1414.9Z" transform="translate(-465.82 -465.64)"/><path class="cls-2" d="M856.25,1125.66q-21.74-1.17-43.47-2.34c-15-.79-30.08-1.53-45.12-2.3-14.14-.73-28.27-1.43-42.4-2.22-17-1-34.06-2.06-51.1-3-10.87-.58-21.77-.77-32.65-1.4-12.85-.73-25.69-1.8-38.55-2.61-4-.26-8-.18-12-.22-2,0-3.67-.56-4-2.79a4.29,4.29,0,0,1,2.43-4.93q36.12-19.71,72.17-39.52,40.11-22.09,80.15-44.29c23.87-13.14,47.81-26.17,71.68-39.32q45.35-25,90.65-50.07,33.16-18.29,66.39-36.49,36-19.86,72.05-39.78,33.4-18.42,66.85-36.79,42-23.13,84-46.31,40.59-22.35,81.22-44.62,50.84-28,101.63-56.12,37-20.42,74-40.82c1.9-1,3.75-2.22,5.58-3.41,2.41-1.56,4.91-2.66,7.52-.63,2.37,1.84,2.12,4.47,1.48,7-2.53,10-5.17,20-7.65,30.08q-19.21,77.71-38.37,155.44-9.72,39.39-19.39,78.8-19.08,77.46-38.2,154.93-12.66,51.29-25.4,102.54-9.42,38.06-18.79,76.13c-1.53,6.19-2.44,6.7-8.65,6.14-12.27-1.12-24.55-2.12-36.83-3.25-14.8-1.37-29.59-2.89-44.4-4.2-14.46-1.29-28.93-2.31-43.39-3.61-12.28-1.11-24.54-2.54-36.82-3.68-9.93-.93-19.89-1.62-29.83-2.47-7-.6-14.07-1.4-21.12-1.88-1.89-.13-3.84.56-5.76.88-2.91-.79-5.77-2-8.72-2.29-10.79-1-21.62-1.57-32.43-2.37-4.51-.33-9-.76-13.5-1.22-5.92-.62-11.82-1.43-17.75-2-6.12-.53-12.27-.76-18.4-1.22-4.32-.32-8.64-.75-12.95-1.19-9.88-1-19.75-2.06-29.62-3.08-2-3.15-.33-5.47,1.7-7.73,3.52-3.92,7-7.81,10.51-11.77,6.78-7.78,13.49-15.62,20.28-23.39,6-6.83,12-13.55,18-20.38,9.17-10.5,18.27-21.08,27.43-31.59,5.71-6.56,11.52-13,17.24-19.59,7-8,14-16.12,21.06-24.17,3.22-3.69,6.5-7.32,9.71-11,9-10.38,18-20.81,27.06-31.18,5.84-6.69,11.77-13.3,17.61-20,9.29-10.64,18.52-21.34,27.82-32,6.21-7.09,12.59-14,18.76-21.16,10.55-12.18,20.93-24.51,31.53-36.65,9.29-10.65,18.85-21.06,28.16-31.7,11.33-13,22.47-26.06,33.78-39,8.69-10,17.58-19.78,26.28-29.74,11.31-13,22.45-26.08,33.78-39,9.31-10.64,18.87-21.05,28.17-31.7,11-12.55,21.76-25.24,32.62-37.87l29-33.78c2.13-.34,3.34-1.56,4-4.27-2.82.73-4.86,1.38-5.36,4.14a5.78,5.78,0,0,0-1,.18l-1.1,1-19.41,15.67-27,21.85q-11.83,9.55-23.69,19.11-16.25,13.18-32.47,26.39c-10.27,8.33-20.59,16.59-30.84,24.94-9.26,7.56-18.4,15.27-27.7,22.79-11.82,9.57-23.77,19-35.62,28.53-9.18,7.38-18.3,14.82-27.44,22.23L1164.7,874.6q-16.25,13.18-32.48,26.39c-10.13,8.21-20.31,16.36-30.44,24.58-11.53,9.35-23,18.77-34.53,28.13-9.85,8-19.74,15.93-29.58,23.92-8.72,7.08-17.37,14.24-26.11,21.3-10.27,8.32-20.63,16.53-30.9,24.85-9,7.3-17.89,14.75-26.9,22-12.25,9.92-24.58,19.73-36.83,29.65q-15.82,12.83-31.54,25.8C875.63,1109.34,866,1117.52,856.25,1125.66Z" transform="translate(-465.82 -465.64)"/><path class="cls-3" d="M856.25,1125.66c9.71-8.14,19.38-16.32,29.14-24.39q15.71-13,31.54-25.8c12.25-9.92,24.58-19.73,36.83-29.65,9-7.3,17.9-14.75,26.9-22,10.27-8.32,20.63-16.53,30.9-24.85,8.74-7.06,17.39-14.22,26.11-21.3,9.84-8,19.73-15.93,29.58-23.92,11.52-9.36,23-18.78,34.53-28.13,10.13-8.22,20.31-16.37,30.44-24.58q16.26-13.17,32.48-26.39l24.88-20.23c9.14-7.41,18.26-14.85,27.44-22.23,11.85-9.53,23.8-19,35.62-28.53,9.3-7.52,18.44-15.23,27.7-22.79,10.25-8.35,20.57-16.61,30.84-24.94q16.24-13.17,32.47-26.39,11.82-9.59,23.69-19.11l27-21.85q9.7-7.85,19.41-15.66l1.1-1a5,5,0,0,1,1-.17l1.35.12-29,33.78c-10.86,12.63-21.66,25.32-32.62,37.87-9.3,10.65-18.86,21.06-28.17,31.7-11.33,12.95-22.47,26.06-33.78,39-8.7,10-17.59,19.77-26.28,29.74-11.31,13-22.45,26.07-33.78,39-9.31,10.64-18.87,21-28.16,31.7-10.6,12.14-21,24.47-31.53,36.65-6.17,7.12-12.55,14.07-18.76,21.16-9.3,10.63-18.53,21.33-27.82,32-5.84,6.69-11.77,13.3-17.61,20-9,10.37-18,20.8-27.06,31.18-3.21,3.7-6.49,7.33-9.71,11-7,8-14,16.13-21.06,24.17-5.72,6.55-11.53,13-17.24,19.59-9.16,10.51-18.26,21.09-27.43,31.59-6,6.83-12,13.55-18,20.38-6.79,7.77-13.5,15.61-20.28,23.39-3.46,4-7,7.85-10.51,11.77-2,2.26-3.72,4.58-1.7,7.73,0,2.54.08,5.09-.08,7.62-.66,10.44-1.45,20.88-2.09,31.32-.45,7.21-.77,14.44-1.08,21.66-.41,9.39-.76,18.79-1.13,28.19-.05,1.45,0,2.9-.1,4.35-.67,9-1.6,18-2,27-.59,12.66-.8,25.33-1.17,38,0,.55,0,1.09-.09,1.63-.69,7.9-1.49,15.8-2,23.71-.52,7.57-.81,15.15-1.11,22.74-.07,1.85-.49,3.21-2.57,3.45-3.43-11.08-6.93-22.14-10.27-33.24q-15.76-52.4-31.44-104.8l-43-143.37C857.79,1130.88,857,1128.27,856.25,1125.66Z" transform="translate(-465.82 -465.64)"/><path class="cls-4" d="M943.28,1414.9c2.08-.24,2.5-1.6,2.57-3.45.3-7.59.59-15.17,1.11-22.74.54-7.91,1.34-15.81,2-23.71,0-.54.07-1.08.09-1.63.37-12.66.58-25.33,1.17-38,.41-9,1.34-18,2-27,.11-1.45,0-2.9.1-4.35.37-9.4.72-18.8,1.13-28.19.31-7.22.63-14.45,1.08-21.66.64-10.44,1.43-20.88,2.09-31.32.16-2.53.06-5.08.08-7.62,9.87,1,19.74,2.07,29.62,3.08,4.31.44,8.63.87,12.95,1.19,6.13.46,12.28.69,18.4,1.22,5.93.52,11.83,1.33,17.75,2,4.5.46,9,.89,13.5,1.22,10.81.8,21.64,1.41,32.43,2.37,2.95.26,5.81,1.5,8.72,2.29-12,18-23.93,36-36,53.93q-22.63,33.69-45.42,67.29-27.13,40.18-54.29,80.38c-1.5,2.22-2.81,5-6.23,4.28-3-.65-3.51-3.41-4.21-5.84A36,36,0,0,1,943.28,1414.9Z" transform="translate(-465.82 -465.64)"/><path class="cls-4" d="M1417.25,671.84l-1.35-.12c.5-2.77,2.54-3.42,5.36-4.15C1420.59,670.28,1419.38,671.5,1417.25,671.84Z" transform="translate(-465.82 -465.64)"/><path class="cls-4" d="M1414.89,671.89l-1.1,1Z" transform="translate(-465.82 -465.64)"/></svg>